<svg xmlns="http://www.w3.org/2000/svg" viewBox="0 0 400 400" width="400" height="400" role="img">
  <title>Kakao</title>
  <defs>
    <linearGradient id="bg" x1="0" y1="0" x2="1" y2="1">
      <stop offset="0" stop-color="#f8ecdb"/><stop offset="1" stop-color="#f0d9b8"/>
    </linearGradient>
  </defs>
  <rect width="400" height="400" fill="url(#bg)"/>
  <circle cx="200" cy="200" r="152" fill="#ffffff" opacity="0.35"/>
  <g fill="none" stroke="#7c5a3f" stroke-width="6" stroke-linecap="round" stroke-linejoin="round">
    <path d="M176 122c10-12-10-20 0-32" opacity="0.45"/>
    <path d="M224 122c10-12-10-20 0-32" opacity="0.45"/>
    <path d="M262 208c36 0 46 20 46 34s-10 34-46 34"/>
    <path d="M134 186h132l-13 126c-2 20-19 34-39 34h-28c-20 0-37-14-39-34z" fill="#fff7ee"/>
    <ellipse cx="200" cy="186" rx="66" ry="18" fill="#4a2c18"/>
    <path d="M150 180c2-24 24-40 50-40s48 16 50 40c-14 10-30 15-50 15s-36-5-50-15z" fill="#fff2df"/>
    <path d="M200 140c0-12 10-18 18-14" stroke-width="5"/>
  </g>
  <g fill="#6b4423">
    <circle cx="180" cy="166" r="4"/><circle cx="204" cy="158" r="4"/>
    <circle cx="224" cy="170" r="4"/><circle cx="196" cy="176" r="4"/>
  </g>
</svg>
